<svg version="1.1" id="Слой_1" xmlns="http://www.w3.org/2000/svg" x="0" y="0" viewBox="0 0 409.99 365.96" xml:space="preserve"><style>.st0{fill:#307c70}.st1{fill:#4ab16a}.st3{fill:#cbdbf2}</style><switch><g><path class="st0" d="M82 55.93H71.77V35.34c0-4.47-1.03-7.66-3.09-9.58-2.06-1.92-5.33-2.88-9.8-2.88-2.29 0-5.32.25-9.09.75l-.77-8.72c3.51-.87 7.55-1.3 12.12-1.3 6.94 0 12.15 1.56 15.63 4.69C80.26 21.43 82 26.44 82 33.33v22.6zm20.05-41.85v41.84H91.49V14.08h10.56zm35.89 24.06l11.69 17.79h-12.05l-13.55-20.67c-1.7 1.82-2.78 5.93-3.21 12.35l-.58 8.32h-9.93l.73-8.87c.49-6.02 1.44-10.35 2.85-12.98 1.41-2.63 3.2-4.67 5.37-6.11l-9.02-13.88h12.02l11.21 17.12c1.9-1.5 3.06-4.92 3.47-10.25l.51-6.86h9.49l-.44 5.09c-.51 5.92-1.46 10.13-2.85 12.64-1.4 2.49-3.3 4.6-5.71 6.31zm36.6 9.47c1.48.53 2.81.79 3.98.79 1.46 0 2.42-.39 2.89-1.16.46-.78.69-2.24.69-4.4V22.8c-1.7 0-4.3.22-7.78.67l-.8-8.56c6.28-.87 12.81-1.3 19.57-1.3 5.72 0 10.25.54 13.58 1.62s5.85 3.05 7.54 5.92c1.69 2.87 2.54 6.93 2.54 12.19v22.6h-10.26v-20.6c0-5.31-.82-8.79-2.45-10.45-1.63-1.66-5.53-2.48-11.69-2.48v20.94c0 3.55-.25 6.09-.75 7.63s-1.53 2.8-3.09 3.79c-1.56.99-3.77 1.48-6.65 1.48-3.12 0-6.09-.49-8.91-1.46l1.59-7.18zm62.62-33.53v23.35h-10.55V14.08h10.55zm39.37 41.85H266.3V35.34c0-4.47-1.03-7.66-3.09-9.58-2.06-1.92-5.33-2.88-9.8-2.88-2.29 0-5.32.25-9.09.75l-.77-8.72c3.51-.87 7.55-1.3 12.12-1.3 6.94 0 12.15 1.56 15.63 4.69 3.48 3.13 5.22 8.14 5.22 15.03v22.6zm38.97-9.54h7.01v9.54h-38.56v-9.54h21.29V35.34c0-4.57-.91-7.81-2.74-9.7-1.83-1.89-4.97-2.84-9.42-2.84-2.63 0-5.58.28-8.84.83l-.77-8.72c3.8-.87 7.6-1.3 11.39-1.3 7.08 0 12.29 1.57 15.63 4.71s5 8.14 5 15.01v13.06zm28.11 1.3c2.75-1.13 4.54-2.71 5.37-4.73.83-2.02 1.28-5.05 1.35-9.07l.44-19.8h10.19l-.55 15.03c-.15 4.57-.37 8.04-.68 10.39-.3 2.35-1 4.69-2.08 7-1.08 2.31-2.76 4.4-5.04 6.27-2.28 1.87-5.75 3.62-10.41 5.26-4.66 1.64-10.13 3.02-16.41 4.12l-1.28-9.07c3.89-.63 7.27-1.33 10.12-2.09l-6.72-36.91h10.37l5.33 33.6z"/><path class="st1" d="M240.43 214.24h-55.57c-7.69 0-13.94-6.25-13.94-13.94 0-7.69 6.25-13.94 13.94-13.94h55.57c2.03 0 3.68 1.65 3.68 3.68 0 2.03-1.65 3.68-3.68 3.68h-55.57c-3.63 0-6.58 2.95-6.58 6.58s2.95 6.58 6.58 6.58h55.57c2.03 0 3.68 1.65 3.68 3.68 0 2.04-1.65 3.68-3.68 3.68z"/><path d="M232.98 180.3h-55.57c-2.03 0-3.68-1.65-3.68-3.68s1.65-3.68 3.68-3.68h55.57c3.63 0 6.58-2.95 6.58-6.58s-2.95-6.58-6.58-6.58h-55.57c-2.03 0-3.68-1.65-3.68-3.68 0-2.03 1.65-3.68 3.68-3.68h55.57c7.69 0 13.94 6.25 13.94 13.94s-6.25 13.94-13.94 13.94z" fill="#549e3e"/><path class="st1" d="M240.43 146.35h-55.57c-7.69 0-13.94-6.25-13.94-13.94s6.25-13.94 13.94-13.94h55.57c2.03 0 3.68 1.65 3.68 3.68s-1.65 3.68-3.68 3.68h-55.57c-3.63 0-6.58 2.95-6.58 6.58s2.95 6.58 6.58 6.58h55.57c2.03 0 3.68 1.65 3.68 3.68 0 2.03-1.65 3.68-3.68 3.68z"/><path class="st3" d="M339.39 80.12v52.29l-96.65-18.97a8.574 8.574 0 00-1.82-9.43l-3.81-3.81 102.28-20.08zm-170.45 29.96c0 1.18.23 2.32.69 3.36l-96.66 18.97V80.12l102.3 20.08-3.81 3.81c-1.64 1.62-2.52 3.78-2.52 6.07z"/><path class="st0" d="M23.87 172.63c.1 1.82.54 3.47 1.3 4.88.76 1.41 1.81 2.62 3.12 3.58 1.34.99 2.64 1.78 3.86 2.36 1.23.59 2.68 1.16 4.3 1.7l34.27 11.39-.57-10.47-16.44-4.63a76.76 76.76 0 00-6.14-1.46l-.47-.09-.06-1.02 6.4-3.01 15.7-8.33-.59-10.93-33.13 19.22-.26-.09c-1.84-.63-2.88-2.04-2.98-4.08-.08-1.52.5-3.2 1.73-5l-7.53-3.84c-1.84 3.17-2.69 6.46-2.51 9.82zm58.17 56.42l-9.41-28.08-13.73 4.6c-5.02 1.68-9.22 2.65-12.48 2.88-3.37.23-5.8-.09-7.42-.99-1.47-.81-2.66-2.06-3.56-3.71l-8.6 2.88c2.08 5.73 5.8 9.37 11.09 10.82 5.55 1.53 13.58.56 23.85-2.89l5.88-1.97 3.23 9.63-34.42 11.54 3.18 9.5 42.39-14.21zM69 282.07c3.83.55 7.62-.47 11.26-3.02 3.68-2.57 5.96-5.8 6.78-9.6.81-3.78-.01-7.46-2.45-10.95l-4.84-6.93 11.63-8.14-5.74-8.21L49 260.85 59.58 276c2.44 3.48 5.61 5.53 9.42 6.07zm3.85-25.67l3.52 5.03c1.18 1.69 1.57 3.39 1.16 5.05-.41 1.63-1.45 3.04-3.12 4.21-1.44 1.01-2.88 1.51-4.29 1.51-.22 0-.44-.01-.67-.04-1.65-.19-3.06-1.11-4.2-2.72l-3.63-5.19 11.23-7.85zm33.99 8.38L79.15 299.9l7.87 6.2 22.52-28.56 13.77 10.87-22.52 28.55 7.87 6.21 27.69-35.11zm45.45 30.03l-30.15 36.35 9.57 3.66 6.02-8.02 14.25 5.44-.8 10.01 9.58 3.66 1.76-47.19-10.23-3.91zm1.18 19.32l-.85 10.04-9.99-3.82 6.14-8.06c1.19-1.58 2.72-3.83 4.53-6.68l.27-.42 1.04.4-1.14 8.54zM206.8 306l-1.1 18.34-17.9-1.07 1.1-18.34-10-.6-2.67 44.63 10 .6 1.07-17.96 17.9 1.07-1.07 17.96 10 .6 2.67-44.64zm78.3 12.88l-8.49-21.12c-.14-.35-.06-.51-.04-.57.1-.21.25-.41.44-.6l3.54-3.64-1.23-3.05-15.88 6.38 1.23 3.05 5.06.19c.25 0 .5.04.72.13.06.02.22.08.36.44l7.87 19.57c.28.71.52 1.46.71 2.24.18.77.28 1.57.3 2.36.01.79-.08 1.59-.26 2.37a7.31 7.31 0 01-.97 2.25c-.45.72-1.07 1.39-1.84 2-.77.61-1.75 1.16-2.9 1.62-1.17.47-2.25.75-3.21.84-.94.08-1.82.01-2.6-.2-.78-.22-1.48-.55-2.08-.99-.62-.44-1.18-.97-1.67-1.56-.5-.6-.94-1.25-1.31-1.93-.38-.69-.71-1.39-.99-2.08l-7.98-19.87c-.1-.24-.11-.44-.03-.61.1-.23.24-.42.41-.57l3.63-3.45-1.23-3.06-19.77 7.95 1.23 3.06h4.99c.25-.02.5.02.74.11.17.07.31.21.4.45l9.03 22.46c.7 1.74 1.71 3.28 3.01 4.55 1.3 1.28 2.89 2.24 4.71 2.85 1.48.5 3.14.75 4.94.75.4 0 .81-.01 1.22-.04 2.26-.14 4.75-.74 7.4-1.81 1.05-.42 2.14-.99 3.25-1.7 1.11-.71 2.19-1.54 3.19-2.48s1.91-2.01 2.71-3.18c.8-1.18 1.42-2.47 1.86-3.84.43-1.37.63-2.85.59-4.4-.03-1.57-.39-3.21-1.06-4.87zm41.52-31.78l-3.68 2.9 4.11 8.24c.08.15.13.28.16.4.03.1.03.2.02.29-.01.1-.05.19-.09.28-.05.08-.1.15-.15.19l-10.31 8.13-19.26-24.42c-.24-.3-.2-.49-.19-.55.04-.25.13-.48.27-.72l2.54-4.36-2.04-2.59-16.78 13.23 2.04 2.59 4.85-1.46c.22-.08.44-.1.66-.07.18.02.34.14.51.35l19.07 24.18c.19.24.28.46.27.65-.02.23-.09.44-.22.65l-2.54 4.36 2.04 2.59 28.51-22.48-9.79-12.38zm25.83-13.88l-4.47 2.86c-.2.14-.42.23-.67.27-.19.03-.41-.05-.65-.23l-8.78-6.6c.29-.13.59-.29.89-.46.57-.32 1.13-.68 1.67-1.07.55-.39 1.05-.8 1.51-1.22.47-.43.85-.85 1.15-1.25 1.27-1.68 2.17-3.47 2.69-5.31.52-1.85.66-3.72.42-5.54-.24-1.83-.9-3.62-1.96-5.32-1.05-1.69-2.52-3.26-4.38-4.66-1.78-1.34-3.58-2.15-5.37-2.42-1.78-.27-3.55-.11-5.25.47-1.68.57-3.32 1.52-4.88 2.81-1.54 1.27-3 2.82-4.34 4.59l-12.38 16.45 2.64 1.99 4.3-2.64c.22-.14.44-.22.66-.25.16-.02.35.05.56.21l24.61 18.52c.25.19.4.37.43.52.04.2.02.44-.05.72l-1.34 4.86 2.64 1.99 13-17.28-2.65-2.01zm-15.52-9.5c-.22.3-.46.6-.72.91-.25.31-.52.6-.8.89-.28.29-.55.56-.81.81-.15.14-.29.27-.42.38l-12.37-9.31 1.61-2.14c.87-1.16 1.79-2 2.73-2.5.93-.49 1.87-.75 2.79-.76.91.02 1.87.19 2.79.6.95.42 1.88.96 2.75 1.62.32.24.67.54 1.06.9.38.36.76.78 1.13 1.26.36.47.68 1 .94 1.58.26.56.43 1.15.5 1.76.07.6.02 1.25-.15 1.93-.16.69-.51 1.38-1.03 2.07zm44.56-50.78l-2.57 2.59c-.17.18-.39.31-.67.41-.31.1-.64.14-.96.14l-40.23-.57-2.65 6.79 5.51 6.02 23.93 21.82c.52.48.79 1.03.82 1.67l.27 3.54 3.05 1.19 5.55-14.21-3.07-1.2-3.48 3.71-6.58-5.93 5-12.79 9.07-.01-.1 4.96 3.08 1.2 7.09-18.15-3.06-1.18zm-22.16 13.12l-3.43 8.77-10.43-9.21 3.52.32 10.34.12zm23.21-62.86l-29.76-2.03c-.38-.03-.48-.17-.52-.22a3.22 3.22 0 01-.36-.65l-1.74-4.8-3.28-.22-1.17 17.19 3.28.22 2.37-4.49c.16-.29.32-.52.47-.67.11-.11.35-.12.52-.11l22.45 1.53-3.22 1.6-26.8 15.57-1.05 15.43 3.3.23 2.21-4.74c.09-.21.22-.39.39-.54.14-.11.33-.16.6-.14l30.52 2.09c.28.02.48.09.59.21.15.17.28.39.37.64l1.74 4.8 3.28.22 1.17-17.16-3.28-.22-2.37 4.45c-.13.24-.29.44-.47.62-.14.13-.4.15-.61.13l-24.87-1.7 3.28-1.61 29.48-17.18.21-.12.47-6.89-7.2-1.44z"/><path class="st3" d="M223.04 112.8l-8.33-10.11 2.97 10.11h-4.44l-5.2-16.07v16.07h-3.73V96.73l-5.19 16.07h-4.44l2.96-10.11-8.32 10.11H180l26.18-26.17 26.19 26.17zm-38.18 26.19h53.09v-13.17h-53.09c-3.64 0-6.58 2.95-6.58 6.58a6.58 6.58 0 006.58 6.59z"/><path d="M184.86 206.89h53.09v-13.17h-53.09c-3.64 0-6.58 2.95-6.58 6.58 0 3.64 2.95 6.59 6.58 6.59z" fill="#e6e6e4"/><path d="M232.98 159.77H179.9v13.17h53.09c3.64 0 6.58-2.95 6.58-6.58a6.59 6.59 0 00-6.59-6.59z" fill="#e5dac6"/><path class="st0" d="M234.84 113.76c-1.02 0-2.04-.39-2.82-1.17l-24.97-24.97c-.3-.3-.64-.36-.87-.36-.23 0-.57.06-.87.36l-24.97 24.97a3.971 3.971 0 01-5.63 0 3.971 3.971 0 010-5.63l24.97-24.97a9.145 9.145 0 016.51-2.7c2.46 0 4.77.96 6.51 2.7l24.97 24.97a3.971 3.971 0 010 5.63c-.79.78-1.81 1.17-2.83 1.17zm34.86 127.31l-23.25-20.09c-.72-.63-1.64-.97-2.6-.97H168.5c-.96 0-1.88.34-2.6.97l-23.25 20.09c-.87.76-1.37 1.85-1.37 3.02v20.08c0 2.21 1.78 3.98 3.98 3.98h121.82c2.21 0 3.98-1.78 3.98-3.98v-20.08c.02-1.17-.49-2.26-1.36-3.02zm-6.59 19.11H216.5v-12.09c0-5.2-4.22-9.42-9.42-9.42h-1.79c-5.2 0-9.42 4.22-9.42 9.42v12.09h-46.61V245.9l20.73-17.92h72.39l20.73 17.92v14.28z"/><path class="st3" d="M263.11 245.9v14.28H216.5v-12.09c0-5.2-4.22-9.42-9.42-9.42h-1.79c-5.2 0-9.42 4.22-9.42 9.42v12.09h-46.61V245.9l20.73-17.92h72.39l20.73 17.92z"/></g></switch></svg>